<?xml version="1.0" standalone="no"?>
<!DOCTYPE svg PUBLIC "-//W3C//DTD SVG 20010904//EN"
 "http://www.w3.org/TR/2001/REC-SVG-20010904/DTD/svg10.dtd">
<svg version="1.0" xmlns="http://www.w3.org/2000/svg"
 width="2560.000000pt" height="2560.000000pt" viewBox="0 0 2560.000000 2560.000000"
 preserveAspectRatio="xMidYMid meet">

<g transform="translate(0.000000,2560.000000) scale(0.100000,-0.100000)"
fill="#000000" stroke="none">
<path d="M12335 24030 c-228 -11 -470 -29 -630 -46 -82 -8 -194 -19 -247 -24
-54 -5 -101 -11 -106 -14 -5 -3 -51 -10 -103 -15 -52 -6 -134 -18 -184 -26
-49 -9 -117 -20 -150 -24 -78 -11 -193 -32 -355 -66 -36 -8 -78 -17 -95 -20
-71 -14 -114 -24 -180 -40 -38 -9 -97 -23 -130 -31 -33 -8 -78 -18 -100 -23
-22 -5 -65 -16 -95 -25 -132 -37 -248 -68 -280 -75 -19 -5 -62 -17 -95 -29
-33 -11 -75 -23 -92 -27 -18 -3 -35 -11 -38 -16 -4 -5 -17 -9 -31 -9 -13 0
-32 -4 -42 -9 -9 -6 -62 -24 -117 -41 -55 -17 -109 -35 -120 -40 -11 -5 -42
-16 -70 -25 -27 -10 -59 -21 -70 -25 -11 -4 -54 -20 -95 -35 -125 -44 -261
-97 -317 -121 -17 -8 -34 -14 -37 -14 -3 0 -31 -12 -63 -26 -32 -14 -67 -29
-78 -34 -11 -5 -46 -20 -77 -34 -31 -14 -59 -26 -62 -26 -21 0 -605 -284 -743
-362 -32 -17 -92 -49 -133 -70 -41 -22 -82 -43 -90 -49 -20 -12 -320 -189
-345 -203 -11 -6 -45 -27 -76 -46 -30 -19 -64 -40 -75 -47 -10 -6 -62 -39
-114 -73 -52 -33 -104 -66 -115 -73 -11 -7 -22 -15 -25 -18 -3 -3 -41 -30 -85
-59 -44 -30 -145 -101 -225 -159 -80 -57 -167 -120 -195 -140 -27 -20 -59 -44
-70 -53 -11 -9 -58 -46 -105 -83 -47 -37 -107 -85 -134 -108 -28 -23 -70 -57
-95 -76 -25 -19 -48 -37 -51 -40 -3 -4 -34 -31 -70 -61 -371 -313 -801 -733
-1135 -1110 -66 -74 -122 -137 -125 -140 -3 -3 -22 -26 -43 -52 -21 -26 -44
-53 -50 -60 -7 -7 -28 -34 -47 -59 -19 -25 -54 -67 -77 -95 -23 -27 -71 -87
-108 -134 -36 -47 -77 -98 -90 -115 -125 -159 -423 -589 -569 -822 -27 -43
-59 -94 -71 -113 -52 -81 -115 -191 -115 -200 0 -6 -4 -10 -10 -10 -5 0 -10
-4 -10 -10 0 -8 -28 -57 -90 -160 -5 -8 -28 -51 -51 -95 -23 -44 -54 -103 -69
-130 -87 -157 -320 -639 -370 -764 -10 -25 -32 -76 -49 -114 -17 -37 -31 -70
-31 -73 0 -3 -6 -20 -14 -37 -17 -39 -93 -229 -111 -277 -8 -19 -26 -69 -41
-110 -14 -41 -33 -89 -40 -107 -8 -17 -14 -38 -14 -46 0 -9 -4 -19 -10 -22 -5
-3 -10 -15 -10 -26 0 -10 -4 -27 -9 -37 -9 -19 -22 -56 -53 -152 -11 -36 -23
-74 -28 -85 -4 -11 -15 -45 -23 -75 -9 -30 -26 -84 -38 -120 -12 -36 -25 -81
-29 -100 -8 -32 -42 -157 -75 -275 -17 -62 -20 -73 -40 -160 -16 -70 -59 -259
-75 -325 -10 -44 -30 -142 -40 -200 -4 -25 -16 -83 -25 -130 -10 -47 -21 -110
-25 -140 -4 -30 -15 -100 -24 -155 -9 -55 -21 -140 -27 -190 -5 -49 -14 -105
-19 -125 -5 -19 -10 -61 -10 -92 0 -31 -4 -78 -10 -105 -17 -86 -34 -304 -60
-783 -12 -219 -6 -902 9 -1080 17 -196 53 -607 61 -695 4 -44 13 -114 19 -155
7 -41 16 -104 21 -140 5 -36 14 -94 21 -130 6 -36 15 -92 19 -125 4 -33 15
-98 25 -145 9 -47 21 -108 25 -136 4 -29 11 -61 15 -73 3 -11 11 -44 16 -73
13 -69 23 -117 44 -203 9 -38 23 -97 31 -130 8 -33 18 -78 23 -100 5 -22 17
-67 26 -100 34 -120 66 -241 71 -265 3 -14 9 -34 14 -45 5 -11 16 -47 25 -80
21 -72 45 -153 55 -180 4 -11 22 -65 39 -120 18 -55 36 -108 41 -117 6 -10 10
-25 10 -33 0 -8 4 -23 9 -33 5 -9 28 -69 51 -132 44 -123 53 -147 95 -255 31
-80 34 -88 69 -168 14 -32 26 -60 26 -63 0 -3 11 -30 25 -60 14 -30 37 -82 51
-117 89 -213 345 -732 455 -922 15 -27 32 -57 36 -65 3 -8 23 -42 43 -75 20
-33 39 -67 43 -75 4 -8 18 -33 32 -55 14 -22 28 -47 32 -55 3 -8 16 -28 27
-45 24 -34 37 -56 66 -105 11 -19 28 -47 38 -62 88 -136 145 -226 155 -243 7
-11 14 -22 17 -25 3 -3 30 -41 60 -85 53 -79 223 -319 288 -405 94 -126 338
-434 401 -506 20 -22 47 -53 60 -70 36 -43 183 -208 307 -344 82 -89 458 -466
564 -565 41 -39 136 -124 210 -190 74 -66 137 -122 140 -125 38 -38 443 -362
590 -472 194 -145 737 -518 754 -518 2 0 39 -23 80 -50 42 -28 93 -60 114 -71
20 -11 44 -24 52 -29 54 -33 155 -92 210 -122 36 -20 81 -45 100 -56 57 -34
203 -109 415 -214 110 -55 207 -104 215 -109 8 -5 22 -12 30 -15 8 -3 38 -16
65 -29 28 -12 66 -29 85 -38 19 -8 62 -27 95 -42 33 -14 69 -30 80 -35 11 -4
40 -17 65 -28 25 -11 70 -30 100 -42 30 -12 69 -28 85 -35 17 -7 64 -25 105
-40 41 -16 79 -32 84 -37 6 -4 20 -8 32 -8 13 0 25 -4 28 -9 3 -5 16 -11 28
-14 13 -3 61 -19 108 -37 47 -17 148 -52 225 -77 77 -25 149 -48 160 -53 58
-21 93 -33 125 -40 79 -19 126 -33 134 -41 6 -5 19 -9 30 -9 11 0 38 -6 61
-14 22 -8 60 -19 85 -26 41 -10 69 -18 185 -49 22 -6 51 -13 65 -16 14 -2 61
-14 105 -26 44 -12 99 -25 123 -30 110 -23 132 -28 207 -44 44 -9 91 -19 105
-21 62 -11 189 -36 228 -44 23 -6 55 -10 70 -10 15 0 59 -6 97 -14 39 -9 111
-20 160 -27 50 -6 115 -15 145 -21 30 -5 98 -13 150 -18 52 -5 163 -17 245
-25 83 -9 215 -20 295 -25 80 -5 213 -14 295 -20 195 -13 794 -13 1005 0 354
22 460 30 600 46 80 8 186 19 235 23 50 5 124 14 165 20 41 7 107 16 145 22
193 28 381 60 605 105 41 9 95 20 120 25 61 12 251 56 325 75 33 9 76 19 95
24 50 12 161 41 190 50 14 4 50 14 80 23 30 9 89 26 130 38 41 12 89 26 105
30 27 6 56 16 120 39 11 4 97 32 190 63 194 64 302 102 327 117 10 5 26 10 36
10 10 0 22 4 28 8 5 5 32 17 59 26 28 10 66 25 85 33 51 21 69 28 130 53 30
12 75 31 100 42 25 11 54 24 65 28 11 5 47 21 80 35 33 15 76 34 95 42 208 91
744 361 849 427 22 14 43 26 45 26 9 0 266 150 409 239 221 138 600 394 722
488 6 5 44 33 85 63 41 30 77 57 80 60 3 3 34 28 70 55 122 93 380 302 454
368 17 16 71 63 120 105 48 42 107 95 131 117 23 22 107 101 186 176 133 126
302 295 379 379 18 19 79 85 135 145 93 100 204 225 266 299 13 16 42 49 64
75 44 49 123 147 220 270 32 42 65 82 72 89 7 7 13 17 13 20 0 4 10 18 23 32
12 14 65 84 117 155 52 72 97 132 100 135 3 3 20 28 39 55 19 28 61 87 93 133
32 45 58 85 58 88 0 3 5 10 11 17 26 30 305 473 326 517 4 8 21 38 38 65 18
28 47 77 65 110 18 33 45 80 59 105 65 117 121 224 235 455 68 138 133 270
144 295 36 83 64 145 82 185 53 118 70 156 70 163 0 5 11 32 25 60 14 29 25
58 25 65 0 7 4 17 8 22 5 6 24 51 42 100 18 50 37 94 42 100 4 5 8 17 8 27 0
10 5 26 10 36 12 19 46 113 91 247 17 50 34 99 39 110 5 11 16 47 25 80 9 33
21 68 26 77 5 10 9 24 9 33 0 8 6 29 14 47 13 29 28 80 56 183 5 17 15 53 23
80 8 28 20 70 26 95 7 25 18 68 26 95 34 126 45 170 79 315 36 155 40 174 71
325 53 264 75 387 96 540 4 33 15 107 24 165 8 58 20 146 25 195 5 50 16 155
25 235 8 80 19 215 25 300 5 85 14 220 20 300 13 186 12 857 0 1020 -6 69 -15
199 -20 290 -5 91 -17 233 -26 315 -9 83 -19 186 -24 230 -4 44 -15 130 -24
190 -9 61 -21 143 -26 183 -5 40 -12 77 -15 83 -4 5 -10 42 -15 82 -5 40 -16
108 -25 152 -9 44 -20 103 -24 130 -5 28 -17 86 -26 130 -28 130 -34 157 -44
215 -6 30 -15 66 -19 80 -5 14 -17 61 -27 105 -9 44 -21 89 -25 100 -5 11 -11
31 -14 45 -3 14 -19 75 -36 135 -17 61 -34 124 -36 140 -3 17 -9 39 -14 50 -4
11 -22 67 -40 125 -55 176 -83 264 -91 285 -4 11 -21 61 -38 110 -16 50 -40
115 -52 145 -11 30 -23 65 -26 78 -3 12 -9 25 -14 28 -5 3 -9 15 -9 28 0 12
-4 26 -8 31 -5 6 -21 44 -37 85 -15 41 -33 89 -40 105 -7 17 -27 66 -45 110
-18 44 -48 113 -66 153 -19 41 -34 75 -34 77 0 4 -21 50 -75 170 -85 184 -322
651 -383 755 -11 19 -30 53 -42 75 -18 33 -69 120 -115 197 -5 9 -20 35 -32
57 -13 23 -45 74 -72 115 -27 41 -50 78 -52 84 -20 50 -529 787 -569 822 -3 3
-41 52 -85 109 -44 57 -87 111 -95 120 -8 9 -42 50 -74 91 -33 41 -76 94 -95
116 -20 23 -47 55 -60 70 -13 16 -42 49 -65 74 -22 25 -66 74 -96 109 -231
268 -792 817 -1074 1052 -16 13 -50 42 -76 65 -26 22 -64 54 -86 70 -21 16
-44 34 -50 39 -6 6 -30 26 -54 45 -24 19 -58 47 -75 61 -16 14 -59 47 -95 74
-36 27 -67 52 -70 55 -15 17 -499 361 -569 405 -9 6 -68 44 -131 86 -63 42
-122 79 -130 83 -8 3 -35 19 -60 36 -25 16 -74 46 -109 67 -35 21 -75 45 -90
54 -14 9 -42 25 -61 36 -19 11 -57 33 -85 50 -27 16 -57 32 -65 36 -8 4 -29
15 -45 26 -125 76 -901 461 -930 461 -2 0 -38 16 -79 35 -42 19 -79 35 -82 35
-3 0 -30 11 -60 25 -30 14 -57 25 -60 25 -3 0 -20 6 -37 14 -31 13 -130 52
-212 83 -22 9 -49 19 -60 23 -11 5 -60 23 -110 40 -49 18 -98 36 -107 41 -10
5 -25 9 -33 9 -8 0 -23 4 -33 10 -9 5 -62 23 -117 40 -55 18 -109 35 -120 40
-11 4 -45 15 -75 24 -30 9 -84 26 -120 38 -36 11 -81 24 -100 29 -32 7 -148
38 -280 75 -30 9 -73 20 -95 25 -22 5 -67 15 -100 23 -33 8 -91 22 -130 31
-90 22 -136 32 -209 45 -33 6 -63 13 -68 16 -5 3 -33 10 -61 14 -29 5 -92 16
-142 25 -49 10 -115 21 -145 25 -30 3 -82 12 -115 18 -33 6 -91 16 -130 21
-38 6 -106 15 -150 22 -44 7 -116 15 -160 19 -44 4 -152 15 -240 24 -464 48
-1115 67 -1560 46z m990 -251 c317 -16 465 -26 565 -38 52 -6 140 -16 195 -22
55 -5 127 -15 160 -21 33 -6 92 -14 130 -18 78 -7 300 -43 415 -66 41 -8 100
-19 130 -25 200 -37 620 -135 749 -175 25 -8 54 -14 66 -14 12 0 25 -3 29 -7
4 -5 29 -13 54 -19 56 -14 189 -53 217 -64 11 -4 81 -27 155 -50 74 -23 144
-46 155 -50 11 -5 47 -18 80 -29 33 -11 98 -34 145 -51 47 -17 96 -35 110 -39
25 -8 109 -42 167 -67 17 -8 34 -14 37 -14 3 0 25 -9 49 -20 23 -10 65 -28 93
-39 54 -21 109 -44 259 -111 128 -57 196 -90 420 -201 233 -116 277 -139 455
-238 47 -27 92 -51 100 -55 8 -3 29 -15 45 -25 17 -10 71 -43 120 -73 123 -74
198 -121 323 -203 59 -38 115 -74 125 -80 73 -43 573 -403 687 -495 19 -15 82
-65 140 -110 58 -45 110 -88 115 -94 6 -6 35 -31 65 -56 82 -67 101 -83 124
-105 12 -11 60 -54 106 -95 262 -232 648 -613 823 -814 10 -11 41 -45 70 -76
29 -31 71 -79 94 -106 23 -27 51 -59 61 -72 11 -13 35 -42 54 -65 18 -22 41
-49 50 -59 10 -9 54 -64 99 -120 44 -57 90 -114 101 -126 20 -24 207 -274 260
-347 91 -126 118 -166 118 -174 0 -5 4 -11 9 -13 8 -3 233 -336 265 -393 9
-16 30 -50 46 -75 16 -25 33 -52 37 -60 3 -8 28 -50 55 -92 26 -43 48 -82 48
-88 0 -5 5 -10 10 -10 6 0 10 -4 10 -10 0 -5 14 -33 32 -62 17 -29 49 -87 71
-128 23 -41 53 -97 69 -125 52 -92 287 -569 351 -715 9 -19 27 -60 40 -90 13
-30 39 -91 57 -135 17 -44 43 -104 56 -133 13 -29 24 -57 24 -62 0 -6 4 -18
10 -28 10 -19 74 -186 115 -302 14 -41 33 -90 41 -108 8 -18 14 -41 14 -52 0
-10 5 -22 10 -25 6 -3 10 -15 10 -25 0 -11 6 -34 14 -52 8 -18 22 -60 32 -93
10 -33 22 -64 26 -69 4 -6 8 -19 8 -30 0 -11 11 -51 24 -90 13 -39 31 -98 40
-131 10 -33 22 -70 27 -83 5 -13 9 -34 9 -48 0 -14 4 -34 10 -44 10 -18 55
-181 70 -255 5 -22 16 -69 25 -105 8 -36 20 -85 25 -110 5 -25 16 -76 25 -115
8 -38 19 -92 25 -120 5 -27 16 -88 26 -135 9 -47 20 -107 24 -135 28 -166 42
-258 50 -320 5 -38 13 -99 19 -135 11 -74 27 -199 42 -345 10 -97 18 -200 38
-510 13 -198 13 -979 0 -1175 -5 -85 -14 -218 -19 -295 -12 -183 -38 -427 -61
-575 -6 -36 -14 -96 -19 -135 -16 -122 -45 -302 -75 -455 -9 -47 -20 -107 -25
-135 -6 -27 -17 -81 -25 -120 -9 -38 -20 -90 -25 -115 -5 -25 -17 -74 -25
-110 -9 -36 -20 -83 -24 -105 -5 -22 -13 -53 -19 -70 -5 -16 -15 -55 -22 -85
-7 -30 -18 -75 -26 -100 -7 -25 -18 -63 -23 -85 -6 -22 -24 -85 -41 -140 -17
-55 -36 -118 -41 -140 -6 -22 -14 -47 -19 -55 -4 -9 -11 -31 -15 -50 -4 -19
-11 -41 -15 -50 -13 -27 -32 -85 -37 -113 -3 -15 -9 -30 -14 -33 -5 -3 -9 -13
-9 -22 0 -15 -19 -72 -65 -192 -111 -293 -104 -275 -129 -333 -9 -21 -16 -44
-16 -52 0 -8 -4 -15 -10 -15 -5 0 -10 -6 -10 -13 0 -13 -47 -132 -80 -202 -10
-22 -31 -67 -45 -100 -15 -33 -40 -91 -58 -130 -39 -88 -289 -588 -296 -595
-4 -3 -19 -30 -35 -60 -49 -92 -88 -163 -111 -200 -12 -19 -24 -39 -26 -45 -5
-12 -122 -206 -161 -268 -15 -23 -34 -55 -43 -70 -16 -27 -201 -310 -231 -352
-7 -11 -44 -63 -81 -115 -87 -125 -246 -344 -253 -350 -3 -3 -21 -25 -40 -50
-41 -52 -34 -44 -146 -184 -48 -60 -94 -117 -103 -126 -9 -9 -32 -36 -51 -60
-43 -54 -85 -104 -127 -150 -17 -19 -40 -44 -50 -56 -244 -282 -646 -684 -947
-947 -12 -10 -37 -33 -56 -50 -45 -41 -94 -83 -150 -127 -24 -19 -51 -42 -59
-51 -9 -9 -63 -53 -121 -98 -58 -46 -114 -91 -125 -100 -55 -46 -248 -189
-415 -308 -102 -73 -190 -136 -195 -141 -6 -5 -15 -11 -20 -13 -6 -2 -57 -35
-115 -74 -126 -83 -127 -84 -176 -113 -22 -12 -59 -36 -84 -52 -25 -16 -52
-33 -60 -37 -8 -4 -50 -29 -92 -55 -43 -26 -80 -48 -84 -48 -3 0 -20 -10 -37
-22 -17 -12 -45 -30 -61 -39 -91 -48 -197 -106 -241 -131 -74 -42 -554 -279
-675 -333 -181 -81 -190 -85 -266 -115 -40 -16 -82 -34 -91 -39 -10 -5 -38
-17 -63 -26 -25 -10 -58 -23 -75 -30 -40 -17 -203 -77 -295 -110 -41 -14 -90
-33 -108 -41 -18 -8 -39 -14 -47 -14 -9 0 -23 -4 -33 -9 -9 -6 -62 -24 -117
-41 -55 -17 -109 -35 -120 -40 -11 -5 -31 -11 -45 -13 -14 -3 -63 -17 -110
-32 -47 -15 -103 -32 -125 -37 -22 -6 -49 -14 -60 -18 -22 -8 -47 -15 -230
-61 -131 -33 -303 -74 -350 -84 -16 -3 -59 -13 -95 -21 -36 -8 -87 -18 -115
-24 -27 -5 -86 -16 -130 -25 -44 -9 -109 -20 -145 -25 -36 -6 -87 -14 -115
-19 -27 -6 -81 -14 -120 -20 -38 -6 -117 -17 -175 -25 -58 -8 -130 -18 -160
-21 -30 -3 -118 -12 -195 -21 -77 -8 -201 -20 -275 -25 -74 -4 -200 -13 -280
-18 -187 -13 -973 -13 -1155 0 -77 5 -205 13 -285 19 -80 5 -163 12 -185 14
-22 3 -107 13 -190 21 -82 9 -179 21 -215 27 -36 6 -96 14 -135 19 -38 4 -97
12 -130 18 -33 5 -103 17 -155 25 -52 9 -129 23 -170 31 -41 8 -100 19 -130
25 -30 5 -86 17 -125 25 -38 9 -88 20 -110 24 -22 5 -71 17 -110 26 -38 9 -88
20 -110 25 -22 5 -80 20 -130 33 -49 14 -112 30 -140 37 -27 7 -59 16 -70 20
-11 5 -38 13 -60 18 -22 6 -78 22 -125 37 -47 15 -96 29 -110 32 -14 2 -34 8
-45 13 -11 5 -65 23 -120 41 -55 17 -109 35 -120 40 -11 4 -47 17 -80 28 -155
52 -300 106 -420 156 -16 7 -48 19 -70 26 -22 8 -42 16 -45 19 -3 4 -27 14
-55 24 -27 10 -75 30 -105 43 -81 37 -110 50 -160 71 -78 33 -181 82 -290 137
-58 29 -123 61 -145 72 -163 81 -222 111 -305 156 -52 28 -111 60 -130 71 -19
12 -53 30 -75 41 -22 11 -42 23 -45 26 -3 3 -32 21 -65 39 -51 29 -97 56 -180
107 -11 7 -58 36 -105 64 -47 29 -120 76 -163 106 -43 29 -80 53 -82 53 -8 0
-170 114 -173 121 -2 5 -8 9 -13 9 -12 0 -401 282 -509 370 -19 15 -71 56
-115 91 -44 35 -85 68 -91 73 -6 6 -30 27 -54 46 -23 19 -51 42 -62 52 -10 9
-38 31 -60 50 -23 18 -53 44 -67 58 -14 14 -43 40 -66 58 -39 33 -184 166
-334 307 -99 93 -240 235 -325 326 -38 41 -99 106 -135 144 -36 39 -104 113
-151 165 -47 52 -89 100 -95 106 -5 6 -26 30 -45 54 -44 54 -86 104 -154 183
-10 12 -48 60 -84 107 -37 47 -69 87 -72 90 -26 23 -370 496 -370 509 0 5 -4
11 -8 13 -7 2 -199 290 -290 433 -14 22 -33 52 -44 67 -10 15 -18 29 -18 32 0
3 -17 33 -38 68 -56 91 -106 177 -134 228 -14 25 -39 70 -56 100 -17 30 -44
80 -61 110 -72 129 -323 644 -361 740 -10 25 -32 77 -50 115 -18 39 -41 93
-52 120 -10 28 -28 69 -38 92 -11 24 -20 46 -20 49 0 3 -6 20 -14 37 -7 18
-20 50 -29 72 -8 22 -26 69 -40 105 -14 36 -33 88 -43 115 -50 147 -72 206
-78 212 -3 3 -6 17 -6 30 0 13 -4 31 -10 41 -5 9 -23 62 -41 117 -17 55 -35
109 -39 120 -5 11 -11 31 -13 45 -3 14 -21 77 -41 140 -19 63 -36 126 -36 140
0 15 -4 30 -9 35 -5 6 -23 69 -40 140 -17 72 -36 146 -41 165 -17 63 -32 123
-40 169 -5 26 -16 75 -25 111 -8 36 -20 90 -25 120 -6 30 -17 91 -25 135 -9
44 -20 107 -25 140 -5 33 -16 101 -25 150 -9 50 -20 124 -24 165 -5 41 -13
102 -19 135 -6 33 -16 105 -21 160 -6 55 -16 143 -22 195 -11 99 -21 243 -38
565 -24 447 -5 1246 38 1610 6 50 16 135 22 190 6 55 15 129 21 165 6 36 14
99 19 140 4 41 15 116 24 165 9 50 20 117 25 150 5 33 16 96 25 140 9 44 20
103 25 130 10 60 27 137 39 185 5 19 17 71 27 115 9 44 25 114 36 155 11 41
24 93 29 115 4 22 17 69 28 105 12 36 21 75 21 88 0 12 4 30 10 40 5 9 16 44
25 77 22 83 138 456 155 500 12 30 67 184 84 235 19 58 64 170 76 192 6 10 10
27 10 37 0 11 4 22 9 25 5 3 12 18 15 32 4 14 16 45 26 68 10 22 28 64 38 91
11 28 34 82 52 120 18 39 40 90 50 115 56 142 330 691 418 840 11 19 35 62 53
95 17 33 46 83 64 111 18 28 36 60 39 72 4 12 12 22 17 22 5 0 9 5 9 10 0 12
174 297 236 388 24 35 44 65 44 67 0 5 103 153 119 172 6 7 11 15 11 18 0 4
202 287 223 310 4 6 34 44 65 86 75 100 155 203 162 209 3 3 21 25 40 50 19
25 39 50 45 56 40 44 75 85 105 124 19 25 45 55 57 67 13 12 23 27 23 33 0 5
4 10 8 10 4 0 44 42 88 92 74 87 142 160 344 372 85 89 229 230 369 361 41 39
84 79 95 90 12 11 62 56 111 99 50 43 111 97 136 120 26 23 61 53 79 66 17 14
47 39 65 55 39 35 45 40 150 124 44 35 96 76 115 91 19 15 69 53 110 84 41 30
80 59 85 64 41 34 307 222 314 222 5 0 11 4 13 8 2 7 309 212 428 287 95 60
271 165 276 165 3 0 18 8 32 19 15 10 59 35 97 55 39 21 84 45 100 55 76 45
145 81 340 180 224 114 347 172 560 266 17 7 52 23 79 35 27 12 72 30 100 41
28 11 70 29 92 39 23 10 54 22 68 26 14 3 29 10 32 15 3 5 15 9 28 9 12 0 26
4 32 10 5 5 34 18 64 29 30 11 93 34 140 51 47 17 112 40 145 51 33 11 69 24
80 29 11 4 47 16 80 25 33 10 69 21 80 26 28 11 268 85 340 104 33 9 68 20 77
25 10 6 26 10 36 10 10 0 38 6 63 14 80 25 339 90 459 115 25 6 79 17 120 26
41 9 98 20 125 25 28 5 86 16 130 25 44 9 107 20 140 24 33 5 101 17 150 26
50 9 124 20 166 25 41 5 102 13 135 19 32 5 104 15 159 20 55 6 163 17 240 25
388 41 1133 58 1570 35z"/>
<path d="M13209 23130 c-12 -7 -18 -33 -23 -97 -4 -49 -10 -106 -13 -128 -2
-22 -9 -119 -13 -215 -5 -96 -14 -220 -19 -275 -6 -55 -10 -126 -11 -157 0
-53 2 -58 25 -64 14 -3 54 -3 89 1 l64 6 6 137 c3 75 7 146 8 157 6 43 15 46
107 39 89 -7 216 12 265 40 53 29 104 78 130 125 26 49 28 58 24 149 -3 91 -5
100 -36 144 -26 38 -48 55 -105 82 -40 19 -96 37 -127 41 -190 21 -350 28
-371 15z m336 -133 c103 -38 150 -136 110 -231 -36 -85 -90 -116 -204 -116
-112 0 -111 -1 -111 82 0 65 17 247 26 276 5 16 129 8 179 -11z"/>
<path d="M12082 23120 c-34 -4 -73 -12 -85 -17 -12 -6 -41 -19 -65 -28 -90
-38 -180 -152 -216 -274 -22 -74 -21 -250 0 -322 41 -137 114 -237 205 -284
143 -74 406 -56 547 38 47 32 47 33 47 87 l0 55 -41 -1 c-27 0 -52 -9 -75 -26
-19 -14 -56 -33 -84 -43 -27 -9 -58 -21 -67 -26 -27 -14 -86 -11 -146 8 -136
43 -221 188 -222 380 0 39 5 75 10 78 6 3 10 18 10 33 0 32 48 118 81 148 35
31 97 61 153 74 58 13 124 2 202 -36 35 -17 65 -24 90 -22 l39 3 -1 49 c0 40
-5 53 -28 72 -15 13 -35 24 -45 24 -9 0 -21 4 -26 9 -10 9 -173 32 -205 30 -8
-1 -43 -5 -78 -9z"/>
<path d="M14206 23043 c-7 -23 -35 -170 -46 -248 -5 -33 -14 -87 -20 -120 -6
-33 -15 -82 -20 -110 -5 -27 -14 -79 -20 -115 -7 -36 -14 -78 -16 -95 -3 -16
-9 -52 -14 -80 -20 -110 -20 -115 0 -135 16 -16 34 -20 85 -20 44 0 67 4 69
13 7 26 30 145 37 197 21 144 27 179 33 189 9 14 61 14 106 1 19 -6 64 -15
100 -20 171 -24 204 -30 213 -39 11 -11 4 -101 -18 -216 -10 -49 -18 -119 -19
-155 l-1 -65 82 -3 81 -3 7 58 c4 32 10 72 15 88 5 17 16 77 24 135 24 157 36
228 52 305 19 94 55 318 52 321 -15 13 -89 34 -119 34 -33 0 -41 -5 -54 -30
-8 -16 -15 -49 -15 -73 0 -25 -7 -64 -15 -87 -8 -23 -15 -58 -15 -78 0 -19 -5
-53 -12 -74 -12 -40 -12 -40 -52 -33 -23 4 -66 10 -96 15 -172 25 -278 48
-285 61 -3 4 2 50 11 101 9 51 20 118 24 148 4 30 11 71 15 90 6 32 4 36 -21
48 -16 6 -54 12 -85 12 -46 0 -59 -4 -63 -17z"/>
<path d="M16034 23045 c-9 -23 5 -35 43 -35 19 0 45 -8 58 -19 l24 -18 -20
-22 c-12 -12 -32 -21 -50 -21 -23 0 -32 -6 -40 -27 -18 -47 -6 -57 64 -50 87
8 132 29 152 71 15 31 15 37 1 64 -25 49 -76 72 -157 72 -52 0 -71 -4 -75 -15z"/>
<path d="M10920 22983 c-14 -2 -29 -9 -34 -14 -6 -5 -29 -9 -52 -9 -24 0 -45
-4 -48 -9 -3 -4 -18 -11 -33 -14 -46 -9 -151 -86 -188 -138 -19 -27 -35 -52
-35 -55 0 -3 -6 -20 -14 -37 -22 -50 -38 -195 -26 -242 5 -22 10 -56 10 -75 1
-64 53 -194 108 -268 33 -46 119 -99 189 -117 62 -16 273 -21 273 -6 0 5 17
12 38 16 65 12 129 36 176 67 74 48 156 161 156 215 0 12 5 23 11 25 27 9 6
334 -24 364 -4 4 -7 14 -7 22 0 22 -31 83 -64 127 -56 74 -100 106 -187 134
-40 13 -210 23 -249 14z m167 -144 c26 -11 57 -28 67 -37 23 -20 80 -109 89
-137 64 -211 63 -300 -4 -406 -55 -87 -163 -139 -286 -139 -42 0 -73 4 -73 10
0 6 -9 10 -20 10 -26 0 -128 105 -137 139 -3 14 -9 31 -13 36 -19 28 -42 149
-43 225 0 94 18 149 67 207 36 43 111 93 139 93 12 0 29 5 37 10 27 17 125 11
177 -11z"/>
<path d="M15788 22984 c-10 -3 -18 -10 -18 -15 0 -5 -5 -9 -11 -9 -6 0 -51
-19 -100 -42 -106 -52 -110 -67 -21 -86 61 -14 63 -13 128 17 37 17 74 31 83
31 9 0 25 -17 36 -37 49 -97 97 -133 176 -133 45 0 47 7 16 58 -13 20 -29 51
-36 69 -7 17 -19 34 -27 37 -8 3 -14 10 -14 17 0 18 -38 61 -68 76 -29 16
-115 25 -144 17z"/>
<path d="M9958 22760 c-18 -15 -25 -27 -21 -43 12 -58 27 -117 45 -172 11 -33
27 -84 34 -114 13 -49 13 -55 -3 -67 -10 -7 -27 -14 -38 -14 -11 0 -33 -7 -49
-15 -15 -8 -37 -15 -47 -15 -11 0 -27 -4 -37 -9 -35 -18 -214 -72 -225 -68 -7
3 -18 24 -25 48 -88 299 -93 309 -136 309 -49 0 -102 -25 -110 -52 -6 -22 10
-90 39 -168 7 -19 25 -75 40 -125 15 -49 33 -108 40 -130 7 -22 19 -60 26 -85
11 -39 68 -223 99 -316 5 -17 10 -38 10 -47 0 -24 106 -24 139 -1 21 15 23 22
17 71 -3 29 -10 61 -16 71 -5 9 -16 44 -26 77 -9 33 -27 92 -39 130 -25 79
-23 95 11 95 13 0 33 4 46 10 36 14 280 89 314 96 35 7 36 5 94 -186 67 -220
56 -200 107 -200 24 0 58 7 75 16 30 16 31 17 24 75 -3 32 -10 67 -15 76 -5
10 -17 45 -27 78 -10 33 -27 92 -39 130 -13 39 -35 111 -50 160 -15 50 -33
106 -40 125 -7 19 -18 55 -25 80 -7 25 -18 60 -26 78 -8 18 -14 43 -14 55 0
12 -7 33 -16 45 -20 29 -97 30 -136 2z"/>
<path d="M15480 22721 c-8 -4 -37 -19 -64 -32 -94 -47 -196 -193 -226 -324 -7
-27 -16 -64 -21 -81 -12 -41 -12 -171 1 -179 6 -3 10 -17 10 -31 0 -52 63
-143 132 -190 24 -16 45 -32 46 -36 2 -5 10 -8 17 -8 7 0 26 -7 41 -15 16 -8
36 -15 45 -15 8 0 19 -4 25 -9 16 -15 198 -44 244 -38 114 13 196 47 259 107
92 88 146 204 176 371 12 73 12 90 -2 153 -20 89 -38 128 -83 175 -69 70 -126
104 -250 146 -49 16 -322 21 -350 6z m286 -107 c82 -33 104 -46 140 -82 57
-59 78 -114 77 -207 -1 -173 -93 -363 -205 -421 -67 -35 -166 -35 -235 1 -15
8 -33 15 -38 15 -13 0 -109 79 -114 93 -2 7 -11 20 -20 31 -13 14 -16 41 -15
135 0 103 3 125 29 191 67 178 154 258 281 259 34 1 79 -6 100 -15z"/>
<path d="M16867 22282 c-28 -30 -21 -61 16 -78 17 -8 39 -19 47 -24 8 -5 54
-28 103 -51 48 -23 87 -48 87 -56 0 -7 -11 -35 -24 -61 -14 -26 -39 -78 -56
-117 -18 -38 -57 -122 -87 -185 -50 -105 -97 -204 -151 -320 -20 -41 -20 -45
-5 -62 26 -29 78 -50 113 -46 30 3 46 20 64 68 3 8 10 22 15 30 5 8 20 40 34
70 14 30 53 114 87 185 34 72 74 157 90 190 37 79 63 132 75 156 12 23 43 19
114 -16 139 -69 171 -77 203 -52 15 11 22 34 19 65 0 7 -49 36 -108 63 -143
67 -235 110 -368 174 -171 81 -181 85 -217 85 -21 0 -42 -7 -51 -18z"/>
<path d="M8350 22130 c-8 -5 -24 -10 -35 -10 -11 0 -62 -21 -114 -47 -222
-111 -324 -297 -292 -533 6 -44 14 -87 19 -97 5 -10 22 -45 38 -78 40 -84 131
-174 217 -213 64 -30 75 -32 184 -32 98 0 126 4 191 26 42 15 84 33 93 40 8 8
23 14 32 14 9 0 17 3 17 8 0 4 16 16 36 27 21 11 68 50 105 88 53 52 69 75 69
96 0 15 -41 110 -91 209 l-91 182 -41 0 c-26 0 -59 -10 -86 -25 -23 -14 -49
-25 -56 -25 -7 0 -18 -6 -24 -13 -6 -8 -29 -20 -51 -27 -22 -7 -45 -19 -51
-27 -6 -7 -19 -13 -29 -13 -44 0 -58 -86 -21 -124 23 -22 51 -15 168 44 42 22
80 37 85 34 16 -10 104 -198 100 -214 -4 -17 -93 -89 -132 -107 -74 -35 -108
-43 -180 -43 -65 0 -85 4 -129 28 -133 71 -228 230 -219 366 8 115 95 236 211
291 76 35 197 65 270 65 56 0 57 0 57 29 0 16 -8 43 -17 60 l-18 31 -100 0
c-55 0 -107 -5 -115 -10z"/>
<path d="M11041 21966 c-51 -13 -62 -33 -52 -91 10 -64 63 -81 145 -45 45 19
46 20 46 64 0 36 -5 48 -26 65 -30 23 -49 24 -113 7z"/>
<path d="M12445 21863 c-126 -2 -463 -27 -600 -43 -44 -5 -120 -15 -170 -21
-49 -6 -121 -14 -160 -19 -38 -5 -113 -16 -165 -25 -52 -9 -120 -20 -150 -25
-30 -5 -89 -16 -130 -25 -41 -9 -98 -20 -127 -25 -28 -4 -56 -11 -61 -14 -5
-3 -33 -10 -63 -15 -30 -6 -72 -14 -94 -20 -22 -5 -69 -16 -105 -25 -36 -8
-108 -27 -160 -41 -52 -15 -115 -31 -140 -37 -25 -6 -49 -14 -54 -19 -6 -5
-19 -9 -30 -9 -11 0 -54 -11 -95 -25 -42 -14 -98 -32 -126 -41 -27 -9 -59 -19
-70 -23 -58 -23 -93 -34 -118 -38 -15 -3 -30 -9 -33 -14 -3 -5 -14 -9 -24 -9
-11 0 -34 -6 -52 -14 -82 -35 -106 -45 -148 -59 -47 -16 -78 -28 -146 -58 -23
-10 -54 -21 -68 -25 -14 -3 -29 -10 -32 -15 -3 -5 -11 -9 -19 -9 -8 0 -53 -18
-100 -40 -47 -22 -88 -40 -90 -40 -14 0 -525 -249 -585 -286 -19 -11 -69 -39
-110 -61 -154 -83 -290 -163 -470 -278 -88 -56 -383 -254 -451 -304 -93 -68
-272 -203 -279 -211 -3 -3 -23 -18 -45 -35 -47 -35 -270 -221 -335 -279 -25
-23 -61 -54 -80 -71 -122 -105 -430 -404 -570 -554 -43 -45 -200 -220 -221
-245 -13 -16 -29 -34 -34 -40 -13 -14 -183 -216 -198 -236 -7 -8 -28 -35 -47
-60 -19 -25 -38 -47 -41 -50 -17 -15 -279 -374 -350 -480 -46 -69 -87 -126
-91 -128 -5 -2 -8 -8 -8 -13 0 -6 -8 -22 -18 -37 -11 -15 -30 -45 -44 -67 -13
-22 -47 -76 -75 -120 -87 -140 -132 -217 -206 -355 -22 -41 -43 -79 -47 -85
-23 -31 -300 -596 -300 -611 0 -2 -12 -29 -26 -61 -56 -124 -84 -190 -84 -197
0 -3 -8 -25 -19 -49 -30 -69 -42 -99 -58 -147 -8 -25 -21 -58 -28 -75 -7 -16
-21 -52 -30 -80 -9 -27 -21 -59 -25 -70 -5 -11 -16 -45 -25 -75 -10 -30 -21
-62 -25 -70 -4 -8 -15 -42 -25 -75 -10 -33 -28 -92 -41 -131 -13 -39 -24 -79
-24 -90 0 -11 -4 -24 -9 -29 -5 -6 -13 -30 -19 -55 -6 -25 -17 -70 -26 -100
-9 -30 -19 -72 -23 -93 -3 -21 -10 -40 -14 -43 -5 -3 -9 -18 -9 -34 0 -16 -5
-41 -11 -57 -6 -15 -15 -48 -20 -73 -5 -25 -16 -74 -24 -110 -9 -36 -20 -87
-25 -115 -5 -27 -16 -84 -25 -125 -15 -72 -19 -96 -44 -255 -7 -38 -16 -89
-21 -113 -6 -23 -10 -59 -10 -80 0 -20 -5 -57 -11 -82 -10 -44 -15 -89 -44
-410 -63 -697 -29 -1606 86 -2270 6 -36 15 -90 20 -120 5 -30 16 -89 24 -130
9 -41 20 -97 25 -125 8 -47 30 -144 50 -225 4 -19 14 -63 22 -97 7 -34 17 -65
21 -69 4 -4 7 -16 7 -27 0 -11 7 -45 16 -76 9 -31 23 -81 31 -111 9 -30 19
-63 24 -72 5 -10 9 -25 9 -34 0 -9 12 -53 26 -98 69 -212 106 -323 114 -341 4
-11 16 -42 25 -70 9 -27 23 -63 30 -80 7 -16 20 -50 28 -75 16 -47 28 -78 58
-146 10 -23 21 -54 25 -68 3 -14 10 -29 15 -32 5 -3 9 -12 9 -19 0 -16 13 -45
130 -300 56 -123 207 -427 248 -500 19 -33 48 -85 65 -115 16 -30 39 -68 49
-85 10 -16 21 -37 25 -45 11 -23 92 -159 131 -220 19 -30 45 -71 57 -90 28
-45 198 -302 208 -315 4 -5 40 -56 80 -112 61 -86 192 -261 234 -313 6 -8 53
-67 104 -130 50 -63 95 -117 98 -120 3 -3 31 -34 61 -70 202 -240 577 -622
844 -860 21 -19 44 -40 50 -46 6 -5 43 -37 81 -69 39 -32 72 -62 75 -65 5 -6
237 -190 370 -294 124 -96 498 -355 580 -402 14 -8 37 -22 52 -32 15 -9 60
-38 100 -63 62 -39 177 -108 239 -144 10 -5 51 -28 91 -49 40 -21 98 -53 128
-69 86 -48 463 -237 472 -237 4 0 44 -17 90 -39 158 -73 199 -91 208 -91 6 0
18 -4 28 -10 17 -9 45 -21 132 -55 87 -34 115 -46 132 -55 10 -6 25 -10 33
-10 8 0 23 -4 33 -9 42 -21 94 -41 107 -41 9 0 23 -4 33 -9 48 -25 345 -121
374 -121 9 0 19 -4 22 -9 3 -5 18 -11 33 -14 16 -3 53 -12 83 -22 78 -23 237
-65 288 -76 24 -5 47 -11 52 -14 5 -3 32 -10 62 -16 29 -6 82 -17 118 -26 36
-8 88 -18 115 -23 28 -5 84 -16 125 -25 41 -8 104 -20 140 -25 36 -6 72 -13
80 -16 8 -4 44 -10 80 -15 36 -4 81 -11 100 -14 38 -6 211 -28 360 -46 319
-38 867 -55 1296 -40 340 12 501 22 639 40 208 26 265 34 330 43 39 5 97 13
130 17 33 4 89 13 125 20 36 7 90 17 120 23 30 6 81 17 113 24 32 8 68 14 80
14 11 0 34 4 51 10 17 5 67 17 111 26 76 16 121 27 300 73 105 27 151 40 200
56 22 7 60 18 85 25 50 14 178 54 225 71 17 6 44 15 60 19 17 5 68 23 115 40
47 17 105 38 130 46 40 14 213 82 265 105 11 5 43 17 71 28 49 19 93 37 192
82 23 10 61 28 85 38 114 51 482 235 485 242 2 5 10 9 18 9 8 0 31 11 52 24
20 12 64 37 97 55 33 18 67 36 75 41 8 5 62 37 120 71 127 74 277 168 385 240
44 30 88 58 97 64 51 31 388 272 398 285 3 3 23 19 45 36 78 58 329 261 363
294 9 8 31 27 50 42 115 92 469 430 641 614 36 38 95 101 131 139 36 39 90 99
120 135 30 35 87 101 125 146 235 273 590 766 790 1099 26 44 55 91 65 105 9
14 32 52 49 85 18 33 42 76 53 95 114 193 342 657 443 901 26 63 56 133 66
156 10 24 19 46 19 49 0 3 6 20 14 37 29 68 39 94 57 147 10 30 32 93 50 140
17 47 35 99 39 115 10 36 52 162 76 225 9 25 20 63 25 85 4 22 15 63 23 90 24
82 48 168 56 205 4 19 18 73 29 120 42 165 50 201 71 310 5 25 13 68 19 95 16
70 28 135 46 245 29 179 34 215 50 345 9 72 21 166 27 210 17 137 27 298 39
642 15 423 -2 989 -40 1288 -5 44 -17 139 -26 210 -16 134 -26 203 -46 315 -6
36 -15 90 -20 120 -5 30 -16 89 -25 130 -8 41 -19 95 -24 120 -26 134 -69 316
-115 485 -9 33 -21 78 -27 100 -6 22 -14 51 -18 65 -5 14 -16 52 -25 85 -10
33 -33 107 -52 165 -20 58 -39 119 -43 135 -5 17 -23 68 -40 115 -17 47 -38
105 -46 130 -8 25 -19 54 -24 65 -5 11 -19 45 -30 75 -11 30 -25 65 -30 78
-49 112 -90 217 -90 229 0 7 -4 13 -10 13 -5 0 -10 6 -10 14 0 8 -18 50 -40
95 -22 44 -40 85 -40 89 0 9 -226 459 -277 552 -17 30 -54 95 -82 144 -28 49
-51 91 -51 93 0 2 -8 16 -19 31 -10 15 -44 70 -76 122 -88 144 -258 400 -359
540 -124 173 -384 508 -435 561 -9 9 -23 25 -31 35 -26 32 -154 179 -160 184
-3 3 -35 37 -69 75 -212 233 -608 615 -805 775 -10 8 -28 23 -38 33 -26 24
-261 213 -320 257 -210 156 -302 223 -358 261 -36 24 -66 47 -68 51 -2 5 -7 8
-12 8 -7 0 -115 69 -235 150 -73 49 -327 199 -498 294 -111 62 -428 220 -562
280 -82 38 -175 79 -205 93 -30 14 -84 36 -120 50 -64 24 -105 41 -165 68 -16
7 -50 20 -75 28 -25 9 -70 25 -100 37 -30 12 -67 25 -83 27 -15 3 -30 9 -33
14 -3 5 -14 9 -24 9 -10 0 -31 6 -47 14 -15 8 -89 33 -163 56 -74 23 -145 45
-158 51 -13 5 -32 9 -43 9 -10 0 -27 4 -37 10 -9 5 -62 22 -117 36 -55 14
-116 31 -135 36 -19 5 -56 13 -82 18 -27 5 -52 11 -57 15 -5 3 -29 10 -53 15
-24 5 -77 16 -118 26 -41 9 -95 20 -120 24 -117 22 -270 52 -313 62 -64 13
-146 25 -452 63 -432 53 -851 70 -1440 58z m865 -382 c96 -5 243 -16 325 -25
83 -9 192 -20 244 -26 52 -5 102 -12 111 -15 10 -3 55 -10 101 -16 143 -19
281 -43 424 -74 39 -8 88 -18 110 -21 22 -3 49 -9 60 -13 11 -5 47 -14 80 -21
71 -14 110 -23 190 -45 33 -9 74 -19 90 -22 17 -2 44 -11 62 -19 17 -8 38 -14
47 -14 8 0 25 -4 38 -9 13 -5 52 -17 88 -26 36 -10 74 -21 85 -26 11 -4 47
-15 80 -25 33 -9 69 -20 80 -25 11 -4 47 -17 80 -28 33 -11 98 -34 145 -51 47
-17 96 -35 110 -39 25 -8 108 -42 167 -67 17 -8 34 -14 37 -14 3 0 25 -9 49
-20 23 -10 65 -28 92 -38 28 -11 82 -34 120 -52 39 -18 95 -43 125 -57 111
-51 245 -118 248 -125 2 -5 10 -8 17 -8 13 0 74 -29 85 -40 3 -3 23 -14 45
-25 22 -11 78 -41 124 -67 46 -27 86 -48 88 -48 3 0 43 -22 90 -50 47 -27 87
-50 90 -50 2 0 30 -16 61 -37 31 -20 73 -46 92 -58 19 -12 85 -54 145 -94 61
-39 117 -76 125 -81 25 -16 380 -271 398 -285 9 -8 78 -62 152 -121 166 -132
321 -265 484 -414 144 -131 528 -523 610 -622 11 -12 64 -75 119 -138 131
-152 132 -154 298 -370 154 -199 490 -692 533 -780 4 -8 12 -24 19 -35 81
-136 176 -306 220 -395 12 -25 24 -47 27 -50 7 -6 149 -295 181 -365 41 -94
71 -160 84 -190 32 -72 85 -200 85 -207 0 -5 11 -31 25 -60 14 -28 25 -59 25
-68 0 -9 4 -20 8 -25 9 -11 53 -127 97 -260 15 -44 30 -89 34 -100 5 -11 16
-47 26 -80 9 -33 21 -69 25 -80 8 -23 32 -104 56 -190 9 -33 20 -69 25 -80 4
-11 10 -33 13 -50 5 -31 35 -150 61 -241 8 -28 15 -65 15 -82 0 -17 5 -34 10
-37 6 -3 10 -19 10 -35 0 -16 5 -41 10 -56 6 -14 15 -54 20 -88 6 -33 17 -97
25 -141 19 -98 31 -177 44 -275 6 -41 15 -102 21 -135 58 -349 91 -1051 71
-1504 -6 -146 -16 -313 -22 -371 -20 -217 -40 -397 -49 -450 -5 -30 -12 -77
-15 -105 -3 -27 -10 -72 -15 -100 -5 -27 -14 -81 -20 -120 -18 -114 -67 -354
-81 -401 -5 -17 -9 -39 -9 -50 0 -11 -6 -40 -14 -65 -7 -24 -19 -69 -26 -99
-6 -30 -19 -80 -27 -110 -8 -30 -19 -73 -25 -95 -6 -22 -16 -58 -23 -80 -7
-22 -20 -65 -29 -95 -61 -207 -202 -613 -251 -725 -7 -16 -27 -66 -45 -110
-30 -74 -76 -181 -137 -315 -34 -75 -199 -403 -234 -465 -15 -27 -39 -72 -52
-100 -14 -27 -68 -121 -121 -209 -53 -87 -96 -161 -96 -163 0 -2 -11 -19 -25
-37 -14 -18 -25 -35 -25 -38 0 -3 -39 -63 -87 -134 -47 -71 -108 -160 -133
-199 -76 -114 -397 -533 -436 -570 -5 -5 -42 -48 -82 -95 -39 -47 -87 -103
-107 -125 -156 -173 -210 -230 -355 -375 -91 -91 -205 -201 -254 -245 -49 -44
-94 -85 -100 -90 -24 -22 -192 -169 -216 -189 -14 -12 -51 -42 -82 -68 -91
-77 -367 -286 -501 -379 -106 -74 -416 -279 -422 -279 -2 0 -56 -33 -122 -73
-65 -40 -143 -85 -173 -101 -30 -16 -60 -32 -66 -37 -16 -13 -122 -68 -349
-181 -195 -97 -223 -111 -295 -141 -19 -9 -66 -30 -105 -47 -38 -18 -104 -45
-145 -61 -41 -16 -84 -33 -95 -38 -11 -5 -40 -17 -65 -26 -25 -10 -58 -23 -75
-30 -16 -7 -50 -20 -75 -28 -25 -8 -58 -21 -75 -27 -57 -23 -71 -28 -205 -70
-74 -23 -144 -46 -155 -50 -11 -4 -47 -15 -80 -25 -33 -9 -71 -21 -85 -25 -42
-14 -130 -37 -240 -65 -58 -14 -126 -32 -151 -40 -26 -8 -57 -15 -70 -15 -12
0 -36 -4 -53 -9 -59 -18 -256 -58 -401 -81 -38 -6 -92 -15 -120 -20 -109 -19
-477 -65 -595 -74 -520 -43 -1203 -39 -1635 9 -272 31 -301 34 -405 50 -176
27 -222 34 -310 51 -47 9 -105 19 -130 24 -99 18 -166 33 -182 41 -10 5 -31 9
-47 9 -16 0 -42 5 -58 11 -15 7 -46 15 -68 20 -22 4 -67 15 -100 24 -33 9 -76
20 -95 25 -75 18 -276 76 -315 90 -11 4 -78 27 -150 49 -113 37 -310 106 -370
131 -11 4 -51 20 -90 35 -156 61 -183 72 -365 152 -100 44 -288 133 -340 162
-19 10 -53 27 -75 37 -22 11 -41 22 -43 27 -2 4 -10 7 -18 7 -8 0 -31 11 -52
23 -20 13 -71 42 -112 64 -100 53 -167 91 -210 118 -19 12 -42 25 -50 29 -27
12 -207 123 -225 138 -5 5 -80 55 -165 111 -185 123 -383 265 -540 390 -8 7
-35 28 -60 47 -25 19 -51 40 -58 47 -7 7 -34 29 -60 50 -47 38 -102 86 -132
113 -8 8 -47 42 -85 75 -268 232 -643 617 -896 920 -46 55 -86 102 -89 105 -4
3 -25 30 -48 60 -22 30 -66 87 -96 125 -30 39 -111 149 -180 245 -69 96 -130
180 -136 187 -5 7 -10 14 -10 17 0 2 -30 48 -66 103 -36 54 -72 109 -80 123
-8 14 -23 39 -34 55 -10 17 -32 53 -48 80 -57 99 -70 121 -110 188 -23 37 -42
71 -42 76 0 5 -6 16 -12 23 -7 8 -33 54 -58 103 -25 50 -47 92 -50 95 -3 3
-12 21 -21 40 -9 19 -31 64 -50 100 -18 36 -41 81 -50 100 -19 36 -80 169
-106 230 -8 19 -25 58 -38 85 -12 28 -48 115 -79 195 -31 80 -61 154 -66 165
-16 37 -89 240 -105 295 -9 30 -21 64 -25 75 -5 11 -16 45 -25 75 -9 30 -20
64 -25 75 -5 11 -11 31 -14 45 -3 14 -12 48 -20 75 -35 115 -48 162 -56 195
-20 88 -51 208 -61 237 -5 18 -15 56 -20 85 -5 29 -14 71 -19 93 -4 22 -15 74
-24 115 -8 41 -17 84 -20 95 -2 11 -12 67 -21 125 -9 58 -21 121 -26 141 -5
20 -9 54 -9 75 0 22 -5 57 -11 79 -10 41 -16 92 -44 360 -39 390 -50 911 -27
1325 15 278 51 642 72 725 5 22 10 57 10 77 0 21 4 57 9 80 6 24 17 86 26 138
9 52 26 140 37 195 28 136 36 171 47 233 5 29 15 67 20 85 9 28 32 117 61 237
9 33 19 69 56 193 8 28 18 66 21 82 3 17 9 35 13 40 3 6 15 39 25 75 10 36 22
70 26 75 4 6 10 27 14 48 4 20 11 40 16 43 5 3 9 13 9 22 0 13 61 188 90 257
4 11 22 56 40 100 17 44 35 90 41 103 5 12 13 32 18 45 54 128 75 173 82 182
5 5 9 15 9 22 0 10 73 173 109 243 43 83 76 151 90 180 9 19 18 37 21 40 3 3
24 42 48 87 72 139 77 148 82 153 3 3 18 30 34 60 16 30 35 62 42 71 8 8 14
19 14 22 0 11 146 246 263 422 136 205 228 331 422 581 257 331 752 854 1050
1109 32 28 63 55 69 61 18 17 268 224 337 280 150 118 352 263 559 401 69 45
132 87 140 93 72 48 258 160 266 160 3 0 18 8 32 18 15 11 58 36 95 56 37 20
84 46 105 58 52 29 210 113 265 140 11 5 53 27 95 48 112 56 251 120 258 120
4 0 39 15 78 34 39 18 136 59 216 90 80 32 154 61 165 66 42 18 242 90 295
105 30 9 64 21 75 25 11 5 45 16 75 25 30 9 64 20 75 25 11 5 31 11 45 14 14
3 49 12 78 20 174 52 152 46 312 85 47 12 100 26 117 32 18 5 56 15 85 20 29
5 71 14 93 18 94 20 305 62 365 72 36 5 88 14 115 19 116 20 205 33 280 41 44
4 145 15 225 23 80 9 248 20 375 26 126 6 232 13 235 17 6 7 513 -4 750 -16z"/>
<path d="M10482 14040 c0 -14 2 -19 5 -12 2 6 2 18 0 25 -3 6 -5 1 -5 -13z"/>
<path d="M16750 13980 c-20 -13 -12 -14 113 -10 66 1 97 -1 97 -9 0 -6 8 -11
18 -11 14 0 15 2 2 10 -12 8 -10 10 8 10 13 0 20 4 17 10 -8 13 -235 13 -255
0z"/>
<path d="M11565 13700 c3 -5 11 -10 16 -10 6 0 7 5 4 10 -3 6 -11 10 -16 10
-6 0 -7 -4 -4 -10z"/>
<path d="M10239 13535 c-3 -2 -81 -8 -175 -13 -142 -8 -176 -13 -211 -31 -60
-30 -70 -52 -93 -216 -5 -38 -30 -209 -55 -380 -25 -170 -50 -341 -55 -380 -6
-38 -14 -97 -19 -130 -6 -33 -16 -107 -25 -165 -15 -105 -18 -130 -56 -380
-21 -138 -35 -234 -50 -350 -5 -36 -16 -110 -24 -165 -30 -192 -97 -651 -106
-720 -5 -38 -17 -113 -25 -165 -9 -52 -19 -129 -22 -170 -4 -67 -3 -78 17
-102 18 -24 29 -28 71 -28 28 0 69 4 92 9 84 19 234 41 341 51 224 21 608 6
811 -30 195 -35 237 -44 345 -72 263 -69 489 -145 680 -230 36 -16 97 -43 135
-61 181 -81 567 -293 661 -364 45 -33 62 -30 69 15 7 38 50 192 65 227 4 11
20 52 35 90 15 39 49 115 76 171 l49 101 0 1522 c1 1455 0 1524 -17 1536 -10
8 -38 22 -63 31 -25 9 -67 27 -95 40 -44 20 -145 56 -342 123 -107 36 -461
120 -593 141 -438 69 -812 100 -1196 100 -121 0 -223 -2 -225 -5z m862 -945
c5 -8 7 -24 4 -35 -7 -26 -38 -309 -39 -359 -1 -36 2 -40 29 -48 17 -4 83 -10
147 -14 136 -7 124 -17 132 116 9 152 27 304 38 317 9 11 29 13 87 8 124 -10
121 -9 121 -62 0 -25 -4 -73 -10 -107 -11 -68 -32 -270 -59 -556 -6 -63 -15
-142 -20 -175 -6 -33 -12 -102 -15 -154 -4 -52 -12 -101 -18 -109 -10 -12 -29
-13 -103 -8 -49 4 -94 11 -99 16 -6 6 -5 52 3 122 8 62 17 151 21 198 4 47 11
119 15 161 l8 76 -54 6 c-30 4 -98 10 -151 13 l-98 7 0 -24 c0 -13 -5 -64 -11
-114 -5 -49 -16 -153 -24 -230 -8 -77 -16 -149 -19 -160 -2 -11 -5 -23 -5 -27
-1 -10 -182 -10 -198 0 -12 8 -11 27 17 347 6 72 15 143 21 159 5 16 9 47 9
70 0 42 22 259 40 396 6 41 10 95 10 121 0 25 6 51 13 58 18 19 194 11 208 -9z"/>
<path d="M14740 13529 c-509 -31 -1038 -122 -1395 -240 -49 -16 -112 -37 -140
-46 -48 -15 -131 -47 -205 -79 -19 -9 -44 -19 -55 -23 -11 -5 -37 -16 -57 -24
l-38 -17 0 -1444 c0 -795 4 -1447 9 -1450 4 -3 23 16 42 42 191 270 443 489
759 660 96 52 105 56 247 116 66 27 221 80 338 114 140 41 363 81 625 112 224
27 973 21 1001 -7 8 -8 6 -29 -9 -80 -12 -37 -30 -102 -42 -143 -25 -89 -44
-144 -77 -225 -14 -33 -29 -69 -33 -80 -29 -70 -147 -306 -194 -388 -31 -54
-54 -102 -51 -107 4 -6 54 -10 113 -10 149 0 431 -32 543 -61 48 -12 116 -12
140 1 38 21 51 64 39 132 -6 35 -15 97 -20 138 -5 41 -16 122 -25 180 -23 147
-30 195 -54 360 -38 274 -50 355 -60 415 -6 33 -17 112 -26 175 -9 63 -20 134
-25 158 -6 23 -10 57 -10 75 0 17 -7 68 -15 113 -8 44 -19 116 -24 160 -6 43
-15 108 -21 144 -6 36 -15 97 -20 135 -4 39 -16 115 -25 170 -9 55 -20 127
-24 160 -5 33 -16 114 -25 180 -19 136 -51 351 -66 440 -5 33 -12 81 -16 107
-7 51 -37 88 -89 109 -67 27 -732 45 -1015 28z m-514 -940 c7 -11 18 -129 34
-364 20 -284 30 -415 41 -517 l12 -108 253 0 c295 0 287 2 282 -89 l-3 -56
-367 -3 -366 -2 -5 57 c-2 32 -9 117 -16 188 -6 72 -16 186 -21 255 -6 69 -17
211 -25 315 -16 204 -19 318 -8 328 11 12 181 8 189 -4z"/>
<path d="M8266 12731 c-17 -18 -29 -90 -66 -381 -6 -41 -14 -97 -20 -125 -5
-27 -15 -90 -21 -140 -6 -49 -15 -119 -20 -155 -5 -36 -14 -99 -19 -140 -22
-165 -75 -541 -95 -665 -7 -49 -19 -130 -25 -180 -6 -49 -15 -115 -21 -145 -5
-30 -18 -125 -29 -210 -22 -166 -34 -256 -50 -360 -8 -56 -19 -128 -45 -312
-3 -21 -7 -55 -10 -75 -3 -21 -10 -67 -15 -103 -6 -36 -24 -164 -40 -285 -28
-207 -49 -357 -70 -503 -5 -34 -14 -92 -20 -130 -32 -222 -39 -277 -31 -285 4
-4 43 9 87 29 198 91 643 250 898 320 123 34 244 67 276 74 19 5 94 23 165 40
72 17 153 36 180 40 28 5 82 16 120 24 169 37 447 78 670 101 83 8 170 18 195
21 110 13 526 20 745 13 234 -8 298 -14 555 -45 197 -24 561 -92 576 -107 4
-4 21 -7 38 -7 24 0 27 3 16 10 -8 5 -25 10 -37 10 -13 0 -23 4 -23 9 0 5 -19
11 -42 15 -23 4 -47 11 -53 15 -5 5 -23 11 -40 14 -16 3 -61 12 -100 21 -120
28 -249 51 -425 75 -41 5 -106 14 -145 20 -181 26 -383 36 -725 36 -482 0
-700 -17 -1235 -100 -102 -15 -432 -79 -495 -95 -19 -5 -57 -14 -85 -21 -27
-6 -72 -18 -100 -25 -27 -8 -86 -23 -130 -33 -137 -33 -544 -160 -655 -205
-31 -12 -42 8 -30 55 9 40 69 393 90 529 5 30 18 109 29 175 11 66 32 188 45
270 14 83 41 242 60 355 47 275 46 268 56 325 5 28 14 82 20 120 22 141 64
391 85 510 8 44 26 152 40 240 14 88 32 198 40 245 8 47 26 153 40 235 14 83
30 175 35 205 5 30 14 84 19 120 6 36 18 108 28 160 35 192 16 287 -77 378
-48 47 -86 54 -114 23z"/>
<path d="M17246 12710 c-88 -81 -113 -183 -86 -343 10 -56 23 -136 29 -177 7
-41 19 -109 26 -150 8 -41 28 -160 45 -265 16 -104 34 -212 40 -240 9 -47 65
-378 80 -475 11 -75 61 -382 71 -435 21 -115 38 -214 48 -280 6 -38 21 -122
32 -185 11 -63 24 -142 29 -175 6 -33 14 -85 20 -115 5 -30 17 -100 25 -155 9
-55 20 -125 26 -155 22 -117 29 -157 38 -220 6 -36 18 -108 26 -160 9 -52 20
-120 25 -150 5 -30 16 -93 24 -140 9 -47 16 -88 16 -91 0 -12 -32 -20 -44 -10
-18 14 -349 120 -561 180 -45 12 -336 86 -375 94 -14 3 -56 13 -95 22 -38 9
-92 20 -120 25 -27 5 -113 20 -190 34 -170 31 -236 42 -340 55 -44 6 -118 15
-164 21 -289 39 -889 60 -1158 42 -108 -7 -149 -14 -174 -28 -36 -22 -36 -40
1 -37 85 7 635 2 735 -6 415 -35 621 -62 930 -123 55 -11 118 -24 140 -28 177
-35 307 -65 390 -90 17 -5 50 -14 75 -20 72 -17 419 -123 550 -167 144 -48
438 -163 528 -206 34 -16 65 -27 69 -24 3 4 -9 109 -27 234 -18 125 -37 255
-41 288 -5 33 -13 92 -18 130 -28 194 -42 293 -60 430 -12 83 -28 197 -36 255
-22 150 -33 225 -45 310 -5 41 -17 122 -25 180 -9 58 -33 233 -55 390 -41 297
-52 372 -75 530 -8 52 -24 165 -35 250 -12 85 -30 216 -41 290 -10 74 -24 171
-30 215 -5 44 -14 109 -20 145 -5 36 -23 162 -39 280 -36 257 -36 254 -56 274
-26 27 -61 19 -108 -24z"/>
<path d="M15065 11059 c-182 -10 -325 -25 -417 -44 -40 -8 -86 -15 -102 -15
-16 0 -43 -4 -60 -9 -17 -5 -49 -14 -71 -20 -251 -62 -402 -115 -595 -208
-108 -52 -357 -204 -380 -232 -3 -4 -28 -25 -56 -48 -72 -60 -213 -206 -282
-293 -140 -178 -260 -411 -322 -625 -17 -60 -35 -123 -40 -139 -6 -16 -17 -84
-26 -150 -9 -67 -18 -134 -20 -151 -3 -25 -114 -217 -168 -292 -16 -21 -23
-22 -239 -25 l-222 -3 -42 -27 c-69 -45 -95 -88 -100 -166 -4 -60 -2 -73 26
-123 16 -31 27 -59 24 -63 -4 -3 -21 -6 -38 -6 -59 0 -251 -72 -302 -113 -40
-32 -133 -126 -155 -157 -61 -84 -97 -171 -117 -284 -17 -92 -14 -672 4 -771
43 -243 239 -453 482 -516 75 -19 110 -20 913 -21 897 -1 871 -3 1007 50 170
65 327 237 376 412 33 116 37 167 37 463 0 350 -10 434 -63 549 -36 80 -95
165 -143 209 -93 85 -252 163 -358 175 -65 8 -67 13 -30 81 63 116 -6 274
-132 303 -21 5 -177 10 -346 10 -281 0 -308 1 -308 17 0 15 149 272 184 318 9
11 37 49 63 85 26 36 58 79 72 96 15 17 44 53 66 80 125 152 325 348 503 490
37 30 83 67 102 83 83 66 221 161 235 161 8 0 15 5 15 10 0 6 7 10 16 10 9 0
-51 -66 -134 -147 -82 -82 -167 -170 -188 -198 -21 -27 -42 -52 -45 -55 -14
-12 -191 -283 -232 -356 -39 -70 -117 -228 -117 -239 0 -2 -13 -32 -29 -67
-37 -81 -44 -105 -33 -112 16 -10 254 33 392 71 319 87 651 252 875 435 11 9
49 40 85 69 148 119 385 377 501 544 18 27 39 55 46 62 18 20 165 259 180 293
4 8 9 17 12 20 18 15 157 314 204 440 53 141 55 134 -28 141 -92 9 -306 8
-480 -2z"/>
<path d="M5918 9370 c-79 -42 -102 -121 -83 -282 14 -112 18 -126 75 -298 40
-122 49 -143 86 -228 13 -29 24 -56 24 -61 0 -4 6 -21 14 -37 8 -16 30 -65 51
-109 20 -44 40 -87 46 -95 5 -8 12 -22 15 -30 22 -56 174 -344 221 -418 18
-29 33 -54 33 -57 0 -6 62 -108 69 -115 4 -3 14 -21 25 -40 30 -56 264 -407
337 -505 74 -99 262 -326 348 -420 137 -149 495 -492 614 -589 58 -47 99 -82
121 -101 6 -6 31 -26 56 -45 25 -19 47 -37 50 -40 21 -24 443 -320 457 -320 3
0 20 -10 37 -23 17 -13 67 -43 111 -67 94 -51 131 -71 153 -85 99 -60 179
-104 297 -163 165 -82 226 -110 350 -162 11 -4 38 -15 60 -25 22 -9 49 -20 60
-25 11 -4 36 -14 55 -20 19 -7 49 -19 65 -26 42 -18 318 -109 390 -128 33 -10
74 -22 90 -27 35 -12 202 -56 260 -69 22 -5 72 -16 110 -25 272 -63 636 -110
943 -122 l164 -6 -5 144 c-5 146 -18 267 -36 336 -5 21 -17 74 -26 118 -19 88
-22 100 -61 230 -14 50 -32 102 -40 117 -8 14 -14 35 -14 45 0 10 -4 23 -8 29
-4 5 -28 54 -52 109 -52 117 -123 243 -181 321 -89 121 -271 282 -465 412
-161 107 -385 231 -539 297 -128 55 -557 274 -563 288 -2 4 -8 7 -14 7 -17 0
-400 247 -418 269 -3 4 -52 42 -109 86 -247 190 -375 307 -515 475 -102 122
-210 273 -267 375 -9 17 -26 46 -38 65 -12 19 -24 43 -27 53 -4 9 -10 17 -14
17 -4 0 -10 10 -13 22 -5 19 -8 20 -23 7 -10 -8 -30 -41 -45 -74 -62 -137 -54
-414 20 -720 19 -76 37 -134 44 -141 4 -4 7 -17 7 -29 0 -48 77 -210 146 -308
19 -26 34 -51 34 -56 0 -5 3 -11 8 -13 4 -1 19 -21 35 -43 49 -71 92 -126 211
-264 22 -25 84 -91 138 -145 57 -58 95 -103 90 -108 -5 -5 -53 2 -113 17 -57
15 -115 29 -129 31 -14 3 -34 9 -45 14 -11 5 -31 11 -45 14 -118 24 -471 174
-625 266 -27 16 -57 33 -65 37 -8 4 -19 11 -25 15 -5 5 -46 34 -91 66 -91 64
-166 126 -268 222 -98 92 -94 88 -171 171 -122 130 -128 138 -247 300 -27 35
-52 69 -56 74 -4 6 -42 64 -83 130 -72 116 -140 246 -172 330 -8 22 -26 69
-40 105 -14 36 -44 117 -67 180 -23 63 -46 124 -50 135 -5 11 -16 43 -25 70
-10 28 -21 59 -25 70 -5 11 -20 55 -35 98 -54 157 -129 283 -217 362 -58 52
-193 135 -220 135 -9 0 -20 5 -23 10 -10 17 -88 10 -127 -10z"/>
<path d="M19570 9364 c-146 -66 -264 -176 -333 -308 -38 -75 -87 -187 -87
-200 0 -6 -11 -40 -24 -76 -13 -36 -43 -117 -66 -180 -23 -63 -45 -124 -50
-135 -14 -35 -37 -97 -76 -200 -74 -199 -178 -381 -358 -625 -122 -165 -346
-403 -485 -515 -36 -29 -79 -65 -96 -79 -29 -26 -197 -141 -260 -179 -36 -21
-272 -137 -280 -137 -3 0 -28 -11 -57 -25 -28 -14 -59 -25 -68 -25 -9 0 -20
-4 -25 -8 -6 -5 -57 -24 -115 -42 -58 -18 -114 -36 -125 -41 -11 -4 -31 -10
-45 -13 -57 -12 -146 -34 -160 -39 -29 -11 -80 -15 -85 -7 -3 4 46 59 108 121
103 104 147 151 216 234 98 117 311 440 311 471 0 8 4 22 9 32 9 16 23 61 52
167 6 22 17 60 24 85 8 25 21 88 29 140 9 52 21 120 26 151 17 96 12 271 -9
349 -24 84 -59 150 -80 150 -9 0 -29 -23 -45 -52 -59 -109 -68 -125 -132 -223
-154 -237 -364 -466 -588 -640 -21 -16 -87 -68 -146 -115 -58 -47 -133 -103
-166 -125 -32 -22 -61 -43 -64 -46 -8 -9 -191 -122 -220 -135 -8 -4 -17 -11
-20 -14 -13 -18 -604 -320 -625 -320 -14 0 -278 -136 -337 -174 -31 -20 -59
-36 -62 -36 -10 0 -118 -72 -211 -139 -188 -136 -333 -276 -416 -401 -42 -64
-153 -279 -179 -345 -4 -11 -13 -33 -19 -50 -7 -16 -21 -56 -32 -90 -11 -33
-24 -68 -30 -77 -5 -10 -9 -26 -9 -35 0 -10 -6 -35 -14 -58 -24 -68 -55 -203
-75 -325 -26 -156 -41 -386 -26 -409 10 -17 178 -13 410 10 323 33 453 52 685
104 41 9 93 20 115 24 22 5 67 16 100 26 33 9 76 20 95 24 19 4 45 13 57 19
12 7 33 12 47 12 15 0 34 4 44 9 9 5 64 24 122 41 58 18 114 36 125 40 11 5
43 16 70 25 28 10 59 21 70 25 11 4 40 15 65 25 71 27 93 36 125 50 27 12 79
33 130 55 43 17 205 94 309 146 94 47 154 80 314 175 24 14 110 62 167 93 11
6 22 14 25 17 3 3 28 18 55 33 28 16 57 34 66 42 8 8 19 14 23 14 4 0 12 5 19
10 7 6 62 45 122 88 115 81 249 179 288 211 228 190 263 220 357 306 92 84
414 409 481 486 31 35 67 75 80 89 13 14 49 57 79 95 30 39 57 72 60 75 18 15
169 228 270 380 183 275 343 545 455 770 51 102 114 236 144 305 39 90 44 100
53 125 6 14 16 39 23 55 8 17 19 48 25 70 7 22 18 54 25 70 46 108 95 321 95
414 0 175 -116 254 -270 185z"/>
<path d="M12230 9030 c0 -5 12 -10 28 -10 21 0 24 2 12 10 -20 13 -40 13 -40
0z"/>
<path d="M17873 21833 c-13 -2 -23 -9 -23 -14 0 -5 -8 -22 -19 -37 -36 -53
-91 -140 -91 -146 0 -3 -27 -48 -60 -100 -33 -53 -60 -98 -60 -101 0 -3 -9
-18 -19 -33 -48 -69 -211 -344 -211 -357 0 -8 10 -20 23 -26 12 -7 25 -16 28
-22 8 -12 91 -20 105 -10 11 8 144 218 144 228 0 2 15 25 32 50 37 53 53 54
118 6 22 -16 53 -34 70 -41 16 -7 30 -16 30 -21 0 -5 4 -9 10 -9 13 0 155 -87
169 -104 9 -11 -2 -36 -54 -120 -36 -58 -65 -108 -65 -112 0 -3 -11 -20 -25
-38 -14 -18 -25 -37 -25 -41 0 -5 -7 -16 -16 -26 -9 -11 -13 -26 -9 -38 9 -28
70 -61 115 -61 37 0 41 3 73 58 19 31 73 119 121 195 47 76 86 141 86 144 0 3
36 63 80 134 44 71 80 132 80 135 0 3 11 20 25 39 14 18 29 49 32 68 4 30 2
37 -18 48 -73 41 -120 42 -146 2 -28 -41 -118 -191 -136 -225 -24 -47 -42 -48
-110 -4 -29 18 -70 41 -90 51 -20 9 -37 21 -37 26 0 5 -5 9 -11 9 -6 0 -42 19
-80 43 -57 35 -69 47 -69 68 0 15 7 29 15 33 8 3 15 10 15 16 0 6 24 50 53 98
95 153 102 169 87 187 -25 30 -98 55 -137 48z"/>
<path d="M7370 21615 c-7 -8 -18 -15 -25 -15 -35 0 -32 -74 5 -130 16 -25 36
-54 42 -65 7 -10 30 -43 51 -72 20 -29 37 -55 37 -58 0 -3 38 -63 85 -134 47
-72 85 -135 85 -140 0 -19 -21 -12 -144 48 -67 33 -148 71 -181 86 -33 15 -87
39 -120 55 -274 130 -282 132 -370 75 -92 -58 -88 -87 34 -271 260 -395 373
-567 378 -580 12 -33 111 -2 131 40 19 43 18 46 -187 356 -53 80 -98 150 -100
155 -2 6 -15 24 -28 41 -24 33 -30 64 -12 64 6 0 23 -6 37 -14 15 -8 68 -34
117 -57 176 -82 271 -126 310 -144 22 -10 76 -35 120 -56 116 -54 154 -64 199
-49 107 35 123 99 54 208 -130 200 -188 288 -197 299 -6 7 -11 14 -11 17 0 2
-35 57 -79 123 -43 65 -90 136 -104 159 -14 22 -33 48 -42 57 -21 21 -68 22
-85 2z"/>
<path d="M19120 21193 c-67 -5 -80 -15 -55 -43 38 -42 78 -52 182 -48 l98 3 9
-89 c10 -99 26 -128 83 -152 68 -29 83 -8 59 87 -9 33 -16 83 -16 110 0 57
-18 90 -65 119 -28 17 -47 20 -136 18 -57 -1 -129 -3 -159 -5z"/>
<path d="M18820 21070 c-80 -17 -154 -62 -233 -143 -76 -78 -114 -135 -150
-222 -23 -58 -28 -85 -29 -156 0 -74 4 -93 30 -150 61 -131 243 -278 373 -303
108 -20 219 -15 278 14 9 4 33 15 53 25 80 38 170 130 239 245 49 80 69 146
71 229 2 105 -34 186 -126 288 -36 41 -177 135 -235 157 -51 20 -207 29 -271
16z m190 -125 c135 -35 270 -184 270 -298 0 -46 -43 -169 -66 -187 -8 -7 -14
-18 -14 -26 0 -22 -121 -144 -179 -182 -48 -31 -63 -35 -120 -35 -82 -1 -149
32 -231 113 -60 60 -90 126 -90 195 0 44 31 134 61 176 10 15 19 31 19 37 0 5
38 48 84 94 73 73 93 87 148 105 34 12 70 20 78 18 8 -2 26 -6 40 -10z"/>
<path d="M6357 20909 c-66 -55 -61 -67 124 -290 89 -107 165 -196 168 -199 3
-3 20 -23 36 -45 84 -110 93 -158 45 -241 -34 -61 -84 -105 -157 -139 -62 -30
-97 -31 -155 -6 -47 21 -86 55 -144 128 -22 26 -42 50 -45 53 -3 3 -54 64
-114 135 -59 72 -123 149 -143 173 -44 53 -69 54 -122 4 -55 -53 -52 -75 17
-150 14 -15 39 -45 57 -66 17 -22 51 -62 76 -91 25 -28 79 -93 120 -144 89
-111 117 -141 126 -141 5 0 19 -10 33 -23 33 -30 119 -57 181 -57 63 0 142 26
210 68 68 43 159 137 188 194 52 103 55 240 9 338 -11 23 -125 172 -177 230
-12 14 -39 45 -59 70 -20 25 -41 51 -48 58 -7 7 -29 34 -50 60 -102 126 -114
132 -176 81z"/>
<path d="M19510 20095 c-168 -167 -309 -314 -314 -324 -11 -26 13 -65 57 -91
53 -33 14 -65 384 313 73 74 140 138 149 141 14 5 15 -1 9 -46 -4 -29 -12 -64
-17 -78 -5 -14 -14 -47 -20 -75 -6 -27 -14 -68 -18 -90 -5 -22 -16 -71 -25
-110 -9 -38 -20 -88 -24 -110 -11 -52 -30 -132 -42 -170 -5 -17 -9 -59 -10
-94 -2 -59 0 -64 36 -101 43 -44 77 -54 120 -35 37 16 635 615 635 636 0 8
-14 30 -31 47 -25 26 -39 32 -73 32 -41 0 -44 -3 -255 -220 -117 -121 -218
-217 -223 -214 -11 7 -7 45 17 144 8 36 20 85 25 110 5 25 17 74 25 110 9 36
20 83 24 105 5 22 18 79 30 128 13 48 23 113 24 145 2 56 1 59 -44 105 -42 42
-52 47 -91 47 l-43 0 -305 -305z"/>
<path d="M5404 20016 c-59 -30 -132 -95 -240 -213 -73 -80 -94 -109 -94 -131
0 -24 28 -55 172 -193 94 -90 199 -191 233 -224 184 -180 245 -235 263 -235
11 0 36 15 56 33 62 57 55 75 -80 208 -64 63 -124 122 -134 133 -17 17 -18 20
-3 42 8 13 37 40 63 59 41 30 56 35 101 35 52 0 109 -13 174 -40 60 -25 71
-29 133 -49 34 -12 69 -21 77 -21 28 0 95 70 95 100 0 25 -26 60 -46 60 -7 0
-49 14 -184 64 -75 28 -108 36 -168 41 -78 5 -84 9 -72 41 17 44 12 141 -9
182 -20 38 -78 97 -118 120 -38 20 -171 14 -219 -12z m124 -146 c7 0 33 -20
58 -45 52 -54 56 -81 18 -149 -34 -61 -121 -156 -143 -156 -10 0 -31 15 -48
33 -16 17 -55 54 -87 82 -31 27 -56 58 -56 68 0 27 108 133 160 156 25 12 54
19 65 16 11 -3 26 -5 33 -5z"/>
<path d="M4828 19438 c-17 -18 -51 -60 -76 -93 -25 -33 -49 -62 -52 -65 -4 -3
-21 -25 -39 -50 -18 -25 -48 -62 -67 -82 -19 -20 -34 -42 -34 -48 0 -5 -4 -10
-8 -10 -4 0 -15 -12 -24 -27 -9 -16 -27 -39 -40 -53 -64 -69 -108 -134 -108
-161 0 -31 40 -69 73 -69 22 0 26 4 122 128 39 50 76 91 84 91 11 1 84 -49
101 -69 3 -3 23 -19 45 -36 54 -39 139 -107 199 -158 27 -22 68 -54 90 -71 23
-16 76 -58 118 -92 43 -35 86 -63 97 -63 26 0 70 59 77 102 6 32 2 37 -68 96
-40 34 -111 91 -158 128 -103 80 -154 121 -195 155 -16 14 -58 46 -92 72 -76
58 -93 75 -93 91 0 7 36 57 80 112 87 107 96 136 58 171 -41 36 -57 36 -90 1z"/>
<path d="M20525 19402 c-55 -5 -139 -35 -193 -69 -104 -67 -172 -152 -221
-276 -17 -44 -14 -210 6 -270 37 -115 127 -240 228 -320 91 -72 121 -87 169
-87 41 0 54 8 187 115 79 63 149 125 156 137 18 34 6 66 -51 134 -28 34 -78
94 -110 134 -57 70 -60 72 -95 66 -36 -5 -71 -36 -71 -63 0 -13 78 -125 92
-131 4 -2 17 -19 29 -38 24 -40 30 -30 -66 -110 -104 -85 -113 -86 -187 -11
-72 73 -109 135 -131 221 -12 49 -12 63 0 112 8 31 26 77 40 103 32 60 120
141 192 177 48 24 68 28 136 28 78 -1 95 -6 177 -50 87 -47 208 -250 208 -350
0 -49 56 -61 105 -22 26 20 27 24 23 90 -3 38 -11 75 -17 81 -6 6 -11 20 -11
30 0 25 -82 148 -139 209 -45 50 -141 115 -201 138 -35 13 -197 28 -255 22z"/>
<path d="M3967 18174 c-81 -53 -175 -171 -222 -278 -28 -65 -55 -185 -55 -248
0 -64 27 -172 58 -228 40 -74 71 -109 136 -157 104 -77 193 -108 311 -108 97
0 163 22 240 79 121 89 210 230 252 396 37 146 32 166 -50 217 -34 21 -72 43
-82 50 -11 7 -47 26 -80 44 -33 18 -77 43 -98 56 -30 19 -42 22 -52 13 -24
-20 -187 -295 -200 -337 -4 -17 1 -29 19 -48 39 -38 68 -33 95 18 33 63 62
111 71 117 4 3 10 15 14 28 9 29 20 28 81 -8 28 -16 68 -38 90 -50 79 -42 87
-51 73 -90 -51 -152 -133 -240 -281 -299 -127 -50 -373 73 -448 225 -19 39
-24 65 -24 124 0 66 17 134 36 150 4 3 9 14 13 25 12 39 105 138 174 185 50
34 61 53 54 96 -4 21 -49 54 -74 53 -7 0 -30 -12 -51 -25z"/>
<path d="M21595 18128 c-38 -22 -92 -52 -118 -66 -26 -15 -56 -31 -65 -37 -37
-22 -130 -74 -187 -105 -33 -19 -73 -41 -90 -51 -30 -18 -63 -36 -145 -81 -96
-53 -111 -64 -116 -86 -8 -28 20 -88 50 -107 28 -19 70 -8 146 39 30 19 75 45
100 58 25 14 62 34 83 46 21 12 45 22 55 22 18 0 22 -6 64 -80 14 -25 55 -97
92 -161 36 -64 66 -120 66 -125 0 -9 -51 -45 -105 -74 -42 -23 -124 -70 -160
-92 -16 -10 -40 -22 -52 -27 -37 -17 -46 -46 -27 -83 42 -83 80 -89 179 -28
36 22 67 40 69 40 2 0 42 23 89 50 47 28 88 50 91 50 4 0 23 11 44 23 20 13
64 39 97 57 126 70 151 84 180 102 17 10 37 21 45 25 8 3 17 9 20 12 3 3 19
14 35 23 41 23 45 67 11 119 -30 45 -56 50 -108 21 -18 -11 -60 -34 -93 -52
-33 -19 -62 -37 -65 -40 -3 -4 -28 -18 -57 -32 l-52 -25 -18 21 c-10 11 -23
30 -29 41 -41 76 -80 145 -98 175 -12 19 -28 49 -36 65 -8 17 -20 37 -27 46
-18 21 -8 45 25 62 68 35 189 101 202 111 8 7 27 18 43 26 35 17 43 47 24 91
-19 46 -43 69 -70 68 -12 -1 -53 -19 -92 -41z"/>
<path d="M3380 17157 c-25 -20 -52 -82 -48 -112 3 -32 35 -53 133 -90 58 -22
110 -45 243 -106 35 -16 67 -29 71 -29 4 0 31 -11 59 -25 29 -14 56 -25 61
-25 6 0 13 -5 16 -10 9 -15 -39 -30 -130 -41 -44 -5 -100 -14 -125 -19 -25 -5
-99 -16 -165 -25 -66 -9 -136 -21 -156 -26 -20 -5 -57 -9 -83 -9 -55 0 -122
-31 -131 -60 -3 -11 -11 -20 -16 -20 -5 0 -9 -11 -9 -24 0 -14 -4 -28 -10 -31
-5 -3 -10 -25 -10 -49 0 -50 13 -65 85 -96 27 -12 66 -28 85 -37 19 -8 44 -19
55 -23 11 -5 49 -22 85 -38 36 -16 83 -36 105 -45 22 -8 65 -26 95 -40 124
-56 173 -77 186 -77 8 0 14 -4 14 -10 0 -5 6 -10 14 -10 7 0 27 -7 42 -15 40
-21 83 -19 90 3 3 9 10 25 15 34 5 10 9 35 9 55 0 41 -3 43 -100 83 -25 10
-80 34 -123 54 -43 20 -81 36 -85 36 -3 0 -24 9 -46 19 -23 11 -61 28 -86 39
-142 63 -182 83 -177 89 4 3 33 10 65 15 31 5 102 16 157 24 111 17 180 27
305 43 47 7 101 16 120 21 19 6 50 10 67 10 57 0 109 27 128 68 10 20 22 45
26 54 5 10 9 33 9 52 0 27 -7 39 -29 55 -16 12 -34 21 -39 21 -6 0 -23 6 -39
14 -35 18 -111 51 -172 76 -25 10 -73 30 -106 44 -33 15 -69 31 -80 36 -11 4
-36 15 -55 23 -19 9 -58 25 -85 37 -107 46 -121 52 -150 65 -16 7 -39 18 -50
23 -14 7 -25 7 -35 -1z"/>
<path d="M22567 17063 c-4 -3 -7 -14 -7 -24 0 -10 -6 -33 -14 -51 -35 -83 -50
-147 -49 -209 0 -79 5 -89 43 -89 30 0 32 3 80 115 4 11 15 36 24 57 36 81 9
208 -44 208 -15 0 -30 -3 -33 -7z"/>
<path d="M22040 17043 c-64 -3 -156 -18 -195 -33 -30 -11 -159 -74 -170 -83
-5 -4 -28 -20 -49 -36 -22 -16 -57 -56 -77 -90 -98 -162 -65 -405 80 -597 98
-130 281 -184 469 -138 60 15 196 73 246 106 75 49 140 134 157 206 26 105 26
122 8 214 -26 137 -31 152 -45 161 -8 4 -14 15 -14 24 0 9 -11 31 -25 49 -14
18 -25 37 -25 42 0 14 -102 108 -139 126 -30 16 -152 58 -155 54 0 -1 -30 -3
-66 -5z m146 -192 c81 -41 151 -135 177 -241 18 -73 14 -109 -23 -178 -48 -90
-197 -177 -362 -210 -125 -24 -264 68 -308 204 -7 22 -20 58 -28 81 -13 37
-12 47 3 95 36 109 123 183 295 249 65 25 194 25 246 0z"/>
<path d="M2865 16145 c-14 -12 -20 -30 -23 -78 -5 -74 -1 -79 84 -106 48 -15
59 -22 59 -40 0 -14 -11 -29 -29 -39 -17 -9 -49 -36 -71 -60 -61 -63 -79 -100
-135 -278 -16 -48 -12 -248 4 -286 8 -18 20 -48 27 -67 7 -19 38 -60 69 -91
102 -105 275 -170 450 -170 115 0 211 45 285 133 37 45 75 113 75 134 0 7 4
21 9 31 25 49 41 136 41 229 0 99 -9 142 -46 221 -19 40 -101 128 -137 147
-15 7 -39 20 -54 28 -78 41 -149 63 -228 71 -143 15 -145 16 -145 52 0 35 -26
92 -52 115 -62 53 -150 78 -183 54z m470 -430 c146 -51 217 -110 254 -210 26
-69 26 -77 0 -156 -27 -81 -42 -110 -81 -154 -91 -104 -291 -108 -485 -10
-114 57 -194 177 -180 267 20 137 107 254 214 289 53 17 193 4 278 -26z"/>
<path d="M21790 15797 c0 -26 7 -62 16 -80 15 -31 22 -35 68 -41 28 -3 77 -6
108 -6 89 0 101 -8 122 -81 24 -85 46 -159 57 -187 5 -13 9 -32 9 -43 0 -11 6
-32 14 -47 19 -37 9 -55 -54 -103 -124 -92 -130 -99 -130 -138 0 -20 7 -54 14
-76 11 -31 20 -41 39 -43 28 -3 50 11 197 129 52 41 149 117 215 168 66 51
130 102 143 112 13 11 49 39 80 62 62 46 103 79 140 115 22 21 24 28 17 80 -9
77 -33 125 -65 128 -14 2 -70 7 -125 13 -55 5 -140 14 -190 20 -49 6 -157 17
-240 26 -82 8 -175 17 -205 20 -30 3 -94 8 -142 12 l-88 5 0 -45z m729 -168
c134 -17 134 -17 65 -72 -73 -58 -63 -51 -156 -121 -43 -32 -80 -62 -84 -67
-3 -5 -13 -9 -23 -9 -18 0 -20 5 -68 175 -8 28 -19 58 -24 67 -5 10 -9 22 -9
28 0 14 191 13 299 -1z"/>
<path d="M2639 15642 c-152 -79 -179 -98 -179 -126 0 -8 -4 -18 -10 -21 -5 -3
-10 -31 -10 -62 0 -66 -3 -66 117 15 47 31 93 61 103 66 10 6 25 26 34 46 17
39 22 110 7 110 -4 0 -32 -13 -62 -28z"/>
<path d="M2531 14901 c-10 -6 -16 -33 -19 -76 -5 -81 10 -105 70 -105 40 0 64
-10 111 -47 l28 -22 -26 -7 c-14 -4 -49 -3 -77 0 -42 6 -52 4 -64 -11 -17 -23
-19 -137 -1 -151 6 -6 41 -13 75 -17 35 -3 75 -10 89 -16 13 -5 43 -9 66 -9
23 0 60 -5 81 -11 22 -6 72 -15 110 -20 179 -22 229 -35 284 -77 91 -69 99
-229 15 -340 -43 -57 -95 -77 -198 -75 -49 1 -112 7 -140 13 -27 7 -77 16
-110 20 -33 5 -103 16 -155 25 -157 26 -204 29 -218 12 -12 -14 -19 -143 -9
-153 6 -6 91 -21 193 -33 39 -4 76 -11 82 -15 6 -3 46 -11 89 -16 43 -5 119
-14 168 -20 110 -15 231 -8 275 15 63 33 125 106 156 185 28 72 29 82 29 236
0 131 -3 165 -15 180 -9 11 -22 32 -30 48 -21 40 -111 115 -149 122 -17 4 -34
11 -37 15 -3 5 -19 9 -36 9 -17 0 -67 7 -112 15 -44 8 -112 20 -151 26 -118
20 -115 18 -115 100 0 97 -22 136 -100 178 -42 22 -139 36 -159 22z"/>
<path d="M22970 14439 c-41 -5 -85 -13 -98 -19 -13 -5 -45 -10 -72 -10 -27 0
-69 -4 -92 -10 -47 -10 -167 -28 -268 -40 -36 -5 -89 -13 -119 -19 -29 -6 -69
-11 -87 -11 -51 0 -64 -20 -64 -105 0 -41 5 -86 11 -102 7 -15 16 -64 20 -108
28 -258 31 -265 84 -265 51 0 65 21 65 96 0 36 -5 75 -11 86 -6 12 -15 55 -20
97 -4 42 -9 87 -11 100 -3 20 3 26 37 37 22 7 78 18 125 24 47 6 114 15 150
20 36 5 115 16 175 25 61 9 139 21 175 26 36 5 83 12 105 17 l40 8 -1 72 c-1
40 -4 75 -6 77 -11 11 -69 12 -138 4z"/>
<path d="M22635 13695 c-44 -7 -95 -18 -113 -23 -79 -26 -171 -100 -204 -167
-43 -84 -43 -85 -43 -269 l0 -181 38 -77 c22 -47 54 -93 79 -115 22 -21 46
-43 52 -48 23 -22 123 -59 181 -68 83 -12 177 -11 260 3 128 21 137 20 156
-20 27 -57 69 -81 157 -89 42 -5 87 -4 100 0 20 8 22 15 22 83 0 84 -2 86 -78
86 -48 0 -122 16 -122 27 0 3 11 19 25 35 33 40 66 103 78 153 14 52 14 308 1
360 -13 52 -58 139 -91 179 -94 112 -294 165 -498 131z m299 -193 c60 -21 128
-82 161 -146 22 -41 26 -63 27 -136 1 -78 -2 -93 -28 -140 -52 -96 -145 -149
-290 -165 -77 -8 -203 9 -254 35 -49 25 -109 77 -121 104 -5 12 -13 28 -18 36
-59 102 -33 264 58 347 36 32 49 40 111 63 86 32 265 33 354 2z"/>
<path d="M3285 13474 c-22 -8 -51 -19 -65 -25 -44 -19 -83 -36 -155 -65 -79
-31 -141 -69 -149 -90 -10 -27 -42 -15 -62 23 -27 53 -44 72 -88 100 -34 22
-50 25 -126 25 -78 0 -91 -2 -128 -27 -94 -62 -132 -187 -132 -437 0 -163 1
-168 23 -182 21 -14 126 -20 768 -43 l146 -5 6 23 c9 34 8 122 -1 136 -8 12
-109 19 -324 22 l-78 1 0 71 c0 74 15 111 64 152 26 21 135 74 173 83 15 4 33
10 38 14 6 4 28 13 50 20 22 7 55 21 73 32 32 19 32 20 32 98 0 89 -5 94 -65
74z m-536 -253 c42 -42 51 -70 52 -173 2 -109 9 -103 -138 -100 -146 3 -169 6
-176 25 -3 8 2 58 11 112 15 92 19 102 54 137 36 36 42 38 98 38 56 0 62 -2
99 -39z"/>
<path d="M22089 13253 c-13 -33 -7 -129 8 -144 6 -6 28 -12 49 -14 58 -5 74
15 74 91 0 90 -3 94 -66 94 -50 0 -55 -2 -65 -27z"/>
<path d="M2387 12513 c-12 -11 -7 -233 8 -373 8 -74 15 -199 15 -277 0 -157 3
-163 67 -163 54 0 56 5 52 168 -2 83 -2 152 1 155 3 3 61 8 130 12 69 4 143 9
165 11 22 2 99 6 170 9 278 11 321 14 338 21 15 5 17 17 15 83 l-3 76 -160 -3
c-88 -1 -204 -7 -259 -12 -54 -6 -169 -10 -256 -10 l-157 0 -5 128 c-3 70 -10
139 -17 155 -9 24 -16 27 -54 27 -24 0 -47 -3 -50 -7z"/>
<path d="M22297 12408 c-13 -7 -17 -24 -17 -78 l0 -68 50 -11 c27 -6 145 -11
262 -12 117 0 233 -4 258 -9 71 -13 353 -22 369 -12 16 12 26 131 12 152 -8
11 -35 16 -113 17 -57 1 -206 7 -333 13 -385 17 -470 18 -488 8z"/>
</g>
</svg>
